<?xml version="1.0" standalone="no"?>
<!DOCTYPE svg PUBLIC "-//W3C//DTD SVG 20010904//EN"
 "http://www.w3.org/TR/2001/REC-SVG-20010904/DTD/svg10.dtd">
<svg version="1.0" xmlns="http://www.w3.org/2000/svg"
 width="780.000000pt" height="783.000000pt" viewBox="0 0 780.000000 783.000000"
 preserveAspectRatio="xMidYMid meet">

<g transform="translate(0.000000,783.000000) scale(0.100000,-0.100000)"
fill="#000000" stroke="none">
<path d="M3612 7750 c-231 -14 -604 -79 -817 -144 -27 -8 -68 -20 -90 -26 -22
-6 -49 -15 -60 -19 -11 -5 -78 -30 -150 -56 -429 -157 -838 -410 -1209 -749
-271 -246 -494 -518 -685 -835 -82 -135 -189 -343 -236 -456 -20 -49 -41 -99
-46 -110 -39 -87 -106 -291 -135 -407 -50 -206 -67 -290 -90 -443 -30 -205
-37 -316 -37 -560 1 -344 16 -483 93 -875 6 -30 15 -64 20 -75 5 -11 12 -36
15 -55 8 -40 33 -125 45 -155 5 -11 12 -31 15 -45 7 -27 62 -182 76 -215 4
-11 19 -47 33 -80 133 -326 383 -746 649 -1093 155 -202 377 -411 548 -517 9
-5 56 -36 105 -69 158 -104 197 -130 224 -143 8 -4 47 -26 85 -48 107 -63 337
-173 440 -210 28 -10 55 -22 60 -26 12 -8 294 -103 375 -126 188 -53 381 -91
570 -113 47 -5 123 -15 171 -20 88 -11 601 -16 617 -6 5 3 70 12 143 21 176
20 336 49 484 90 33 9 78 20 100 26 48 12 272 86 300 99 11 5 61 26 110 46
360 145 777 407 1075 675 231 208 372 359 531 574 217 292 367 549 483 830 20
50 41 98 47 107 5 10 9 23 9 30 0 7 6 25 14 40 8 15 17 41 21 59 4 19 11 40
16 49 4 8 15 40 23 70 8 30 24 89 36 130 58 210 90 376 116 615 20 177 22 637
4 785 -32 265 -61 424 -105 585 -9 33 -20 78 -26 100 -11 45 -66 209 -79 240
-5 11 -26 63 -46 115 -44 116 -156 349 -218 453 -25 43 -46 82 -46 87 0 6 -4
10 -9 10 -5 0 -11 8 -15 18 -17 51 -216 327 -351 488 -64 76 -342 354 -419
419 -302 255 -678 488 -1001 620 -50 20 -104 43 -122 51 -17 8 -37 14 -45 14
-8 0 -18 4 -23 8 -6 5 -44 18 -85 31 -41 13 -84 26 -95 31 -11 5 -40 13 -65
19 -25 7 -79 20 -120 30 -41 11 -106 26 -145 34 -63 14 -112 22 -328 57 -76
12 -430 30 -552 28 -44 0 -135 -4 -203 -8z m488 -160 c298 -24 518 -57 695
-105 33 -9 78 -20 100 -26 47 -12 271 -85 300 -99 11 -5 76 -32 145 -61 138
-58 342 -161 432 -217 15 -9 66 -41 114 -71 94 -59 255 -176 344 -250 30 -25
70 -59 90 -75 81 -68 341 -338 415 -431 132 -168 139 -177 206 -275 117 -171
261 -430 327 -590 13 -30 27 -64 33 -75 21 -45 83 -223 114 -330 10 -33 22
-71 26 -85 5 -14 13 -45 19 -70 5 -25 16 -76 25 -115 55 -246 93 -654 82 -880
-8 -152 -26 -374 -33 -400 -2 -11 -11 -60 -19 -110 -8 -49 -22 -121 -30 -160
-9 -38 -20 -90 -26 -115 -5 -25 -13 -56 -18 -70 -4 -14 -16 -52 -26 -85 -31
-105 -88 -270 -96 -279 -5 -6 -9 -17 -9 -26 0 -22 -21 -41 -34 -31 -6 5 -36
19 -66 31 -30 12 -64 26 -75 30 -43 18 -146 50 -160 50 -8 0 -23 4 -33 10 -17
9 -72 23 -167 41 -27 5 -75 14 -107 20 l-56 11 -6 127 c-10 195 -35 538 -46
621 -18 139 -77 393 -110 475 -4 11 -18 49 -31 85 -13 36 -56 130 -95 210 -40
79 -72 146 -70 147 1 2 43 -11 92 -28 169 -59 294 -132 398 -234 47 -46 199
-247 240 -318 16 -26 33 -46 40 -44 19 6 20 192 0 275 -27 117 -112 268 -204
362 -63 65 -212 154 -278 166 -18 3 -35 10 -38 15 -3 5 -22 9 -42 10 l-37 0
35 13 c52 20 144 43 242 62 121 22 283 15 496 -21 57 -10 40 25 -56 116 -88
84 -159 128 -267 166 -59 21 -276 25 -316 7 -13 -7 -46 -20 -74 -29 -50 -18
-155 -75 -187 -103 -25 -21 -23 -15 18 75 57 125 66 143 123 238 74 124 99
156 209 262 58 57 93 97 89 106 -4 10 -21 13 -71 10 -210 -11 -402 -128 -509
-311 -20 -35 -37 -66 -37 -69 0 -3 -6 -19 -14 -36 -21 -47 -46 -185 -46 -255
l0 -61 -78 77 c-42 42 -109 95 -147 118 -82 48 -212 100 -272 109 -122 19
-272 8 -363 -26 -42 -15 -149 -75 -173 -96 -32 -30 -28 -31 123 -54 179 -26
469 -116 680 -211 l55 -25 -106 -1 c-221 -3 -384 -74 -549 -242 -104 -105
-154 -195 -208 -370 -14 -47 -26 -175 -17 -189 4 -7 65 48 158 142 185 187
328 298 452 349 57 24 218 78 221 75 2 -2 -23 -30 -55 -63 -102 -107 -182
-281 -199 -439 -10 -84 1 -270 17 -315 5 -14 17 -50 26 -80 25 -83 55 -142 68
-137 7 2 15 19 18 38 4 19 14 66 23 104 15 64 25 101 56 225 37 149 112 316
199 442 78 112 125 156 156 145 25 -10 88 -175 185 -492 11 -34 25 -118 40
-240 6 -44 15 -110 20 -147 11 -73 12 -566 1 -663 l-6 -60 -221 -6 c-122 -4
-237 -11 -255 -17 -19 -6 -59 -13 -89 -17 -30 -3 -71 -10 -90 -15 -19 -6 -75
-19 -125 -31 -87 -20 -329 -96 -390 -123 -16 -7 -46 -19 -65 -26 -19 -7 -63
-26 -98 -42 -35 -15 -65 -28 -67 -28 -2 0 -38 -16 -79 -35 -63 -29 -76 -39
-76 -58 0 -33 28 -87 46 -87 8 0 43 13 77 30 35 17 67 30 71 30 4 0 26 8 49
19 80 35 321 121 482 170 85 27 227 56 385 79 144 20 593 24 715 5 157 -25
303 -64 470 -125 96 -35 125 -49 121 -57 -2 -3 -31 -62 -64 -131 -60 -121
-107 -208 -141 -260 -9 -14 -21 -34 -28 -45 -99 -164 -312 -451 -334 -448 -12
1 -142 51 -214 82 -78 33 -262 85 -400 111 -60 12 -128 25 -150 30 -94 21
-318 35 -560 35 -244 0 -500 -17 -518 -34 -4 -4 -1 -34 6 -67 l14 -59 64 3
c35 2 84 8 108 13 25 6 173 10 330 9 282 0 389 -8 641 -50 131 -21 310 -69
415 -110 113 -44 173 -74 169 -84 -6 -15 -223 -228 -309 -302 -38 -33 -108
-89 -155 -125 -47 -35 -87 -66 -90 -69 -25 -26 -301 -200 -419 -263 -82 -44
-85 -45 -100 -26 -18 22 -105 38 -202 39 -30 0 -78 8 -105 17 -55 19 -190 97
-215 125 -35 39 -68 124 -120 303 -5 17 -15 53 -23 80 -16 51 -35 125 -87 325
-47 181 -78 368 -79 476 0 50 1 51 41 69 65 30 66 39 16 188 -25 73 -55 166
-67 207 -30 102 -50 167 -66 218 -8 23 -14 51 -14 61 0 10 -3 21 -7 25 -5 4
-13 29 -19 54 -7 26 -19 72 -28 102 -9 30 -23 78 -31 105 -7 28 -21 75 -30
105 -15 52 -35 122 -57 200 -45 160 -96 428 -98 507 0 13 237 -220 274 -270
13 -18 27 -43 31 -57 4 -14 27 -66 51 -117 24 -50 44 -96 44 -102 0 -23 24
-61 40 -61 36 0 52 48 30 90 -6 12 -7 21 0 25 8 5 100 -170 100 -191 0 -13 32
-44 46 -44 61 0 68 170 13 295 -12 26 -62 93 -113 148 -109 120 -143 166 -256
347 -46 74 -94 149 -106 165 -53 72 -85 161 -108 305 -3 19 -1 94 6 165 19
210 8 307 -45 430 -56 126 -125 228 -254 376 -18 20 -33 44 -33 53 0 27 38
157 51 172 8 10 36 14 93 14 121 1 139 22 151 179 7 88 9 92 36 107 36 18 36
31 0 97 -39 69 -45 111 -27 172 20 63 20 106 1 152 -36 85 -90 128 -225 177
-78 29 -277 30 -335 2 -38 -18 -100 -62 -136 -96 -33 -31 -98 -126 -104 -153
-4 -15 -11 -30 -16 -33 -5 -3 -9 -12 -9 -21 0 -15 -8 -34 -66 -162 -37 -80
-77 -122 -243 -259 -167 -136 -193 -198 -189 -435 3 -149 3 -153 -24 -198 -15
-25 -45 -58 -67 -74 -23 -15 -41 -30 -41 -34 1 -14 82 -63 127 -76 85 -26 238
-12 330 30 17 8 34 15 39 15 4 0 22 11 41 26 18 14 33 20 33 14 0 -12 -41 -73
-52 -78 -5 -2 -8 -7 -8 -12 0 -5 -17 -35 -38 -67 -89 -136 -134 -223 -123
-237 11 -13 6 -25 -55 -136 -23 -43 -54 -118 -54 -132 0 -8 -4 -18 -9 -23 -4
-6 -13 -28 -19 -50 -6 -22 -18 -64 -26 -92 -9 -29 -23 -75 -31 -103 -8 -27
-21 -71 -29 -97 -46 -154 -96 -313 -109 -343 -9 -19 -51 -68 -95 -107 -86 -78
-132 -151 -132 -210 0 -22 -15 -56 -47 -105 -26 -40 -52 -80 -58 -90 -65 -105
-90 -144 -95 -148 -3 -3 -16 -22 -29 -42 -12 -21 -24 -38 -25 -38 -7 0 -68 36
-136 80 -229 150 -557 335 -685 387 -236 96 -406 137 -685 165 -131 13 -487 3
-595 -16 -44 -8 -81 -13 -83 -12 -10 11 -22 146 -25 296 -8 329 18 623 82 930
38 180 123 452 184 591 13 30 32 74 42 99 18 42 102 209 157 310 57 105 207
330 300 449 130 164 364 411 501 527 166 141 529 393 605 421 9 4 19 9 22 12
6 7 170 88 255 126 109 49 272 112 347 135 40 12 82 25 93 30 20 8 50 16 170
46 168 42 324 69 480 84 61 6 142 15 180 19 104 12 312 12 465 1z m-470 -3268
c0 -56 -6 -117 -16 -150 -22 -77 -75 -235 -84 -247 -3 -5 -15 -32 -25 -60 -9
-27 -23 -63 -30 -80 -42 -98 -79 -221 -166 -565 -39 -151 -79 -309 -90 -350
-60 -235 -139 -410 -251 -558 -41 -54 -68 -98 -64 -107 7 -19 81 -56 181 -91
44 -15 82 -29 83 -30 2 -1 -24 -31 -58 -66 -84 -86 -138 -158 -194 -255 -25
-45 -46 -84 -46 -87 0 -6 -150 -255 -162 -271 -5 -5 -25 -32 -45 -60 -58 -78
-102 -123 -149 -150 -41 -24 -45 -25 -131 -14 -193 24 -174 26 -212 -31 -19
-28 -32 -52 -30 -54 10 -8 147 -36 177 -36 37 0 39 -6 13 -34 -26 -29 -101
-156 -107 -183 -4 -16 4 -35 31 -68 34 -41 42 -45 80 -45 40 0 46 -4 78 -47
51 -71 110 -183 97 -183 -6 0 -41 14 -77 30 -35 17 -66 30 -68 30 -11 0 -245
115 -304 149 -37 22 -99 56 -139 76 -40 20 -72 40 -72 44 0 5 8 19 19 32 10
13 33 55 52 93 19 37 44 78 55 90 18 17 71 98 129 194 6 10 37 60 69 112 33
52 122 196 199 320 76 124 165 266 197 316 87 137 100 166 100 227 0 45 -5 61
-35 103 -19 27 -35 57 -35 67 0 21 100 194 116 201 5 2 41 -9 80 -26 81 -35
155 -61 159 -56 2 2 15 25 28 53 28 54 24 63 -33 79 -14 4 -34 11 -45 16 -11
5 -42 18 -68 30 -57 25 -58 19 19 145 79 130 77 126 106 172 27 43 58 166 58
234 0 22 7 56 15 76 8 19 15 59 15 87 0 56 30 208 53 272 8 22 41 89 72 150
71 133 144 279 225 444 70 144 95 182 109 162 16 -25 46 -8 71 40 l25 48 12
-48 c7 -26 13 -89 13 -140z m-2660 -922 c207 -26 282 -39 302 -50 10 -6 25
-10 33 -10 21 0 216 -66 284 -97 112 -49 296 -147 402 -212 290 -178 359 -224
359 -238 0 -13 -118 -203 -126 -203 -4 0 -229 116 -307 159 -77 42 -129 42
-185 1 -47 -34 -111 -112 -161 -197 -19 -32 -78 -128 -131 -213 -53 -85 -120
-195 -150 -245 -29 -49 -81 -133 -115 -185 -64 -98 -98 -160 -135 -243 -11
-26 -24 -45 -29 -43 -4 3 -28 37 -52 76 -24 40 -58 90 -75 113 -111 149 -325
545 -394 727 -11 30 -24 64 -29 75 -24 56 -43 110 -72 205 -17 58 -35 114 -40
125 -5 11 -13 40 -19 65 -5 25 -16 77 -25 115 -18 82 -47 256 -43 260 2 2 59
8 127 14 69 6 127 14 130 16 12 13 311 3 451 -15z m1836 -204 c3 -8 18 -16 35
-20 27 -5 29 -9 29 -50 0 -37 -10 -63 -58 -143 -33 -54 -75 -128 -96 -165 -20
-37 -40 -69 -44 -71 -7 -5 -116 63 -140 87 -10 10 2 36 65 137 109 172 143
220 153 214 5 -3 15 1 22 9 17 19 27 20 34 2z m-278 -512 l70 -46 -42 -67
c-22 -36 -51 -81 -64 -98 l-23 -32 -37 20 c-74 42 -102 61 -102 71 0 14 113
197 122 198 4 0 38 -21 76 -46z m1746 -779 c6 -59 22 -129 59 -260 23 -84 86
-231 172 -410 72 -149 97 -203 135 -290 34 -80 42 -132 36 -230 -11 -160 18
-280 84 -350 26 -28 25 -35 -3 -35 -13 0 -46 -6 -73 -14 -50 -14 -146 -32
-339 -62 -88 -14 -177 -18 -440 -18 -291 0 -348 2 -480 22 -336 49 -518 94
-514 124 4 34 -5 53 -54 106 -114 124 -132 170 -131 329 0 62 5 122 11 135 7
13 20 41 29 63 16 36 51 92 64 105 3 3 37 46 75 95 67 88 154 177 371 380 59
55 164 156 232 224 l125 124 231 3 c127 1 258 7 291 12 118 18 111 21 119 -53z
m741 -1484 c19 -8 19 -8 -2 -20 -19 -9 -24 -8 -33 9 -12 22 -2 25 35 11z"/>
<path d="M2675 6259 c-33 -3 -76 -14 -95 -24 -38 -19 -215 -137 -325 -216 -68
-48 -72 -50 -125 -45 -30 3 -84 12 -120 21 -36 9 -92 22 -125 30 -57 13 -116
27 -250 61 -127 31 -151 35 -197 29 -119 -15 -190 -86 -114 -115 24 -9 62 -26
261 -120 55 -25 138 -64 185 -86 47 -21 88 -43 92 -48 4 -6 -5 -18 -20 -28
-43 -28 -84 -58 -168 -124 -44 -34 -103 -76 -132 -94 -60 -36 -72 -36 -197 -1
-123 36 -199 26 -253 -32 l-23 -24 48 -22 c64 -28 141 -71 178 -98 25 -18 30
-28 30 -65 l0 -43 41 -3 42 -3 6 -67 c4 -37 11 -88 17 -113 l10 -47 60 29 c48
24 59 33 59 53 0 14 4 35 9 48 5 13 17 58 27 101 l17 78 66 39 c36 21 119 65
184 97 136 67 136 67 137 -37 0 -36 5 -108 10 -160 4 -52 10 -146 12 -207 2
-62 7 -113 12 -113 12 0 121 67 134 82 8 11 57 227 92 413 5 22 15 72 23 110
8 39 21 96 27 127 16 74 34 91 231 224 167 112 279 206 305 255 19 38 18 82
-4 109 -22 27 -82 38 -167 29z"/>
<path d="M4187 1603 c-8 -7 -77 -35 -297 -120 -237 -91 -301 -114 -385 -140
-172 -52 -372 -103 -409 -103 -14 0 -32 -14 -52 -41 -16 -22 -40 -54 -53 -70
-13 -16 -22 -31 -20 -33 10 -9 279 43 414 79 33 9 80 21 105 27 25 6 50 14 55
18 6 4 26 11 45 15 19 4 40 11 45 15 6 4 26 11 45 15 19 4 41 11 50 16 8 4 56
22 105 40 82 29 401 155 416 165 6 3 -1 31 -27 107 -6 17 -25 23 -37 10z"/>
</g>
</svg>
